# xmcd
#
# Track frame offsets:
#	150
#	11356
#	27966
#	41132
#	52538
#	62829
#	79846
#	92484
#	103236
#	114675
#	130487
#	145519
#	161626
#	190539
#	211245
#
# Disc length: 2942 seconds
# Revision: 0
# Processed by: cddbd v1.5.2PL0 Copyright (c) Steve Scherf et al.
# Submitted via: dBpowerAMP V12.0
#
DISCID=c00b7c0f
DTITLE=Martin Philippi Blues Band - Martin Philippi Blues Band
DYEAR=1900
DGENRE=
TTITLE0=Hey, Baby,Hey
TTITLE1=Lonesome Road Blues
TTITLE2=Irene, Good Night
TTITLE3=Ramblin' On My Mind
TTITLE4=Nürnberg - Hersbruck Train Blues
TTITLE5=Automobile Blues
TTITLE6=I'm Wild About You, Baby
TTITLE7=I Don't Want Your Millions, Mister
TTITLE8=My Baby Don't Love Me
TTITLE9=Hoochie Coochie Man
TTITLE10=All Your Love
TTITLE11=Sugar Mama
TTITLE12=Rosalie
TTITLE13=Stormy Monday
TTITLE14=I Got My Mojo Workin'
EXTD=
EXTT0=
EXTT1=
EXTT2=
EXTT3=
EXTT4=
EXTT5=
EXTT6=
EXTT7=
EXTT8=
EXTT9=
EXTT10=
EXTT11=
EXTT12=
EXTT13=
EXTT14=
PLAYORDER=
